<svg width="24" height="25" viewBox="0 0 24 25" fill="none" xmlns="http://www.w3.org/2000/svg">
<g id="icon/close" clip-path="url(#clip0_2980_486)">
<path id="Vector" d="M18.3 6.12232C17.91 5.73232 17.28 5.73232 16.89 6.12232L12 11.0023L7.10997 6.11232C6.71997 5.72232 6.08997 5.72232 5.69997 6.11232C5.30997 6.50232 5.30997 7.13232 5.69997 7.52232L10.59 12.4123L5.69997 17.3023C5.30997 17.6923 5.30997 18.3223 5.69997 18.7123C6.08997 19.1023 6.71997 19.1023 7.10997 18.7123L12 13.8223L16.89 18.7123C17.28 19.1023 17.91 19.1023 18.3 18.7123C18.69 18.3223 18.69 17.6923 18.3 17.3023L13.41 12.4123L18.3 7.52232C18.68 7.14232 18.68 6.50232 18.3 6.12232Z" fill="white"/>
</g>
<defs>
<clipPath id="clip0_2980_486">
<rect width="24" height="24" fill="white" transform="translate(0 0.412109)"/>
</clipPath>
</defs>
</svg>
