<svg width="200" height="69" viewBox="0 0 200 69" fill="none" xmlns="http://www.w3.org/2000/svg">
<path d="M23.2716 43.3503C29.0816 43.3503 33.7915 38.6404 33.7915 32.8304C33.7915 27.0205 29.0816 22.3105 23.2716 22.3105C17.4616 22.3105 12.7517 27.0205 12.7517 32.8304C12.7517 38.6404 17.4616 43.3503 23.2716 43.3503Z" fill="#FC8001"/>
<path d="M23.2909 22.896C22.0186 22.8946 20.7611 23.1697 19.6055 23.7023C18.45 24.2349 17.424 25.0122 16.5986 25.9805C15.7732 26.9489 15.1681 28.085 14.8252 29.3103C14.4822 30.5356 14.4097 31.8208 14.6126 33.0769C15.7492 30.1085 18.8518 27.9767 22.5056 27.9767C25.5569 27.9767 28.2253 29.4621 29.6839 31.6817H29.7107C30.5609 31.6597 31.3899 31.9485 32.0425 32.4939C32.0669 32.2281 32.0791 31.9598 32.0791 31.6866C32.0791 29.3578 31.154 27.1243 29.5072 25.4776C27.8605 23.8309 25.6271 22.9058 23.2983 22.9058" fill="#FDCC01"/>
<path d="M32.0426 32.4941C31.39 31.9486 30.561 31.6599 29.7108 31.6818H29.684C27.0985 31.6989 24.3789 33.9453 23.5862 36.7162C23.1715 38.1918 23.391 39.5187 24.074 40.4382C23.813 40.4626 23.5447 40.4773 23.2764 40.4773C21.1857 40.4789 19.163 39.7345 17.5722 38.3779C15.9814 37.0214 14.9267 35.1417 14.598 33.077C14.2959 33.8749 14.143 34.7215 14.1468 35.5747C14.1555 36.6176 14.389 37.6465 14.8314 38.591C15.2737 39.5356 15.9146 40.3736 16.7103 41.048C17.9585 42.0422 19.4163 42.7396 20.9736 43.0875C22.5309 43.4354 24.1469 43.4248 25.6995 43.0564C27.252 42.688 28.7005 41.9714 29.9355 40.9609C31.1704 39.9504 32.1595 38.6724 32.828 37.2235C32.8889 37.0576 32.945 36.8869 32.9938 36.7162C33.4817 34.9478 33.0768 33.3917 32.0426 32.4941Z" fill="#FD0024"/>
<path d="M59.3533 35.1014L60.0338 32.5647C60.0667 32.4408 60.0665 32.3105 60.0332 32.1867C59.9999 32.0629 59.9347 31.95 59.844 31.8593C59.7534 31.7687 59.6405 31.7034 59.5167 31.6701C59.3929 31.6368 59.2626 31.6366 59.1387 31.6696L56.602 32.3476C56.4789 32.3815 56.3668 32.4469 56.2769 32.5375C56.1869 32.628 56.1222 32.7405 56.0892 32.8638C56.0561 32.9871 56.0559 33.1169 56.0885 33.2403C56.1211 33.3637 56.1855 33.4764 56.2751 33.5672L58.1313 35.4234C58.2218 35.5137 58.3343 35.5787 58.4577 35.612C58.5811 35.6453 58.7111 35.6457 58.8347 35.6131C58.9583 35.5805 59.0712 35.5162 59.1622 35.4264C59.2532 35.3366 59.3191 35.2246 59.3533 35.1014Z" fill="#FDCC01"/>
<path d="M89.1471 31.9988V40.6625C89.1471 40.7052 89.1301 40.7462 89.0999 40.7764C89.0697 40.8066 89.0288 40.8235 88.9861 40.8235H86.9616C86.9194 40.8229 86.879 40.8056 86.8494 40.7755C86.8197 40.7454 86.8031 40.7048 86.8031 40.6625V32.7574C86.8031 30.2548 85.4299 28.784 83.0737 28.784C80.8297 28.784 79.0711 30.3426 79.0711 32.8135V40.6625C79.0711 40.7048 79.0545 40.7454 79.0248 40.7755C78.9951 40.8056 78.9548 40.8229 78.9126 40.8235H76.8881C76.8458 40.8229 76.8055 40.8056 76.7758 40.7755C76.7462 40.7454 76.7295 40.7048 76.7295 40.6625V32.7574C76.7295 30.2451 75.3685 28.7816 73.0001 28.7816C70.8049 28.7816 68.9829 30.2817 68.9829 32.811V40.6601C68.9829 40.7024 68.9663 40.743 68.9366 40.7731C68.907 40.8032 68.8667 40.8204 68.8244 40.8211H66.8145C66.772 40.8204 66.7315 40.8033 66.7014 40.7732C66.6714 40.7432 66.6542 40.7026 66.6536 40.6601V27.0011C66.6542 26.9588 66.6714 26.9185 66.7016 26.8888C66.7317 26.8591 66.7723 26.8425 66.8145 26.8425H68.8097C68.8518 26.8425 68.8921 26.8592 68.9218 26.8889C68.9516 26.9187 68.9683 26.959 68.9683 27.0011V28.167C68.9694 28.1987 68.9798 28.2294 68.9984 28.2553C69.0169 28.2811 69.0426 28.3009 69.0724 28.3121C69.1021 28.3233 69.1345 28.3254 69.1654 28.3183C69.1964 28.3111 69.2246 28.295 69.2463 28.2718C70.361 27.0059 71.966 26.5645 73.4148 26.5645C75.61 26.5645 77.354 27.4962 78.293 29.0548C78.307 29.0786 78.327 29.0983 78.3509 29.1119C78.3749 29.1256 78.402 29.1328 78.4296 29.1328C78.4572 29.1328 78.4843 29.1256 78.5083 29.1119C78.5322 29.0983 78.5522 29.0786 78.5662 29.0548C79.7101 27.184 81.7175 26.5645 83.4883 26.5645C86.847 26.5693 89.1471 28.7401 89.1471 31.9988Z" fill="white"/>
<path d="M105.562 33.6428C105.562 37.7429 102.574 40.7162 98.7743 40.7162C96.8059 40.7162 95.3083 40.0186 94.2595 38.9186C94.2375 38.8955 94.209 38.8796 94.1778 38.873C94.1466 38.8663 94.1141 38.8693 94.0846 38.8814C94.0551 38.8935 94.0299 38.9143 94.0124 38.9409C93.9949 38.9676 93.9858 38.9989 93.9863 39.0308V45.9871C93.9863 46.0292 93.9696 46.0695 93.9399 46.0992C93.9102 46.129 93.8698 46.1457 93.8278 46.1457H91.818C91.7757 46.1457 91.7351 46.129 91.705 46.0994C91.6749 46.0697 91.6576 46.0294 91.657 45.9871V27.0133C91.6576 26.971 91.6749 26.9307 91.705 26.901C91.7351 26.8713 91.7757 26.8547 91.818 26.8547H93.8278C93.8698 26.8547 93.9102 26.8714 93.9399 26.9011C93.9696 26.9309 93.9863 26.9712 93.9863 27.0133V28.2548C93.9858 28.2867 93.9949 28.318 94.0124 28.3446C94.0299 28.3713 94.0551 28.392 94.0846 28.4041C94.1141 28.4162 94.1466 28.4192 94.1778 28.4126C94.209 28.4059 94.2375 28.39 94.2595 28.367C95.3083 27.2669 96.8059 26.5693 98.7743 26.5693C102.574 26.5693 105.562 29.5426 105.562 33.6428ZM93.8546 33.6428C93.8546 36.4282 95.7693 38.521 98.5133 38.521C101.328 38.521 103.172 36.3258 103.172 33.6428C103.172 30.9597 101.284 28.7645 98.5133 28.7645C95.7425 28.7645 93.8449 30.8695 93.8449 33.6428H93.8546Z" fill="white"/>
<path d="M131.956 29.7231C131.946 29.742 131.932 29.7585 131.915 29.7717C131.898 29.7848 131.878 29.7944 131.857 29.7996C131.837 29.8049 131.815 29.8058 131.794 29.8023C131.772 29.7988 131.752 29.7909 131.734 29.7792C130.449 29.0292 128.99 28.6274 127.502 28.6133C125.644 28.6133 124.444 29.3987 124.444 30.628C124.444 31.7134 125.419 32.2135 127.073 32.4135L128.646 32.6135C131.532 32.9989 133.232 34.2135 133.232 36.4575C133.232 39.043 130.917 40.7162 127.217 40.7162C125.583 40.7162 123.387 40.3333 121.622 39.0625C121.589 39.0381 121.566 39.0022 121.559 38.962C121.551 38.9218 121.559 38.8802 121.58 38.8454L122.495 37.3819C122.506 37.363 122.521 37.3466 122.539 37.334C122.557 37.3213 122.578 37.3126 122.6 37.3085C122.621 37.3043 122.643 37.3048 122.665 37.3099C122.686 37.315 122.707 37.3246 122.724 37.338C123.724 38.0698 125.058 38.6771 127.229 38.6771C129.458 38.6771 130.832 37.9454 130.832 36.6063C130.832 35.6063 129.946 34.977 128.102 34.7477L126.532 34.5623C123.487 34.1916 122.014 32.8184 122.014 30.7622C122.014 28.1597 124.173 26.5889 127.473 26.5889C129.551 26.5889 131.454 27.1255 132.766 27.9767C132.799 28 132.823 28.0347 132.832 28.0743C132.842 28.1139 132.836 28.1555 132.817 28.1914L131.956 29.7231Z" fill="white"/>
<path d="M143.878 29.7231C143.868 29.7421 143.854 29.7586 143.836 29.7718C143.819 29.785 143.799 29.7945 143.778 29.7998C143.757 29.805 143.735 29.8059 143.714 29.8024C143.693 29.7989 143.672 29.791 143.654 29.7792C142.369 29.0284 140.91 28.6265 139.422 28.6133C137.564 28.6133 136.364 29.3987 136.364 30.628C136.364 31.7134 137.339 32.2135 138.993 32.4135L140.566 32.6135C143.452 32.9989 145.152 34.2135 145.152 36.4575C145.152 39.043 142.837 40.7162 139.137 40.7162C137.503 40.7162 135.307 40.3333 133.541 39.0625C133.509 39.0381 133.486 39.0022 133.478 38.962C133.471 38.9218 133.478 38.8802 133.5 38.8454L134.415 37.3819C134.426 37.363 134.441 37.3466 134.459 37.334C134.477 37.3213 134.498 37.3126 134.519 37.3085C134.541 37.3043 134.563 37.3048 134.585 37.3099C134.606 37.315 134.626 37.3246 134.644 37.338C135.644 38.0698 136.981 38.6771 139.151 38.6771C141.381 38.6771 142.752 37.9454 142.752 36.6063C142.752 35.6063 141.866 34.977 140.022 34.7477L138.451 34.5623C135.407 34.1916 133.934 32.8184 133.934 30.7622C133.934 28.1597 136.093 26.5889 139.393 26.5889C141.471 26.5889 143.374 27.1255 144.686 27.9767C144.72 27.9996 144.744 28.0344 144.753 28.0741C144.763 28.1138 144.757 28.1557 144.737 28.1914L143.878 29.7231Z" fill="white"/>
<path d="M47.9456 37.1381C47.9164 37.1092 47.8769 37.093 47.8358 37.093C47.7947 37.093 47.7553 37.1092 47.7261 37.1381C45.7187 39.0357 42.8844 38.9796 41.0014 37.0966C39.0721 35.1673 39.0501 32.2672 41.0721 30.2549C43.043 28.2841 45.8626 28.2646 47.7919 30.0866C47.8062 30.1012 47.8233 30.1128 47.8421 30.1208C47.861 30.1287 47.8812 30.1328 47.9017 30.1328C47.9221 30.1328 47.9424 30.1287 47.9612 30.1208C47.98 30.1128 47.9971 30.1012 48.0114 30.0866L49.3432 28.7549C49.3584 28.7397 49.3706 28.7216 49.3788 28.7018C49.3871 28.6819 49.3914 28.6606 49.3914 28.639C49.3914 28.6175 49.3871 28.5962 49.3788 28.5763C49.3706 28.5564 49.3584 28.5383 49.3432 28.5232C46.4358 25.7304 42.199 25.7572 39.3867 28.5695C36.5378 31.4184 36.5476 35.7332 39.4575 38.643C42.3259 41.5114 46.5675 41.57 49.4188 38.8431C49.4356 38.8275 49.4491 38.8087 49.4583 38.7877C49.4675 38.7667 49.4722 38.744 49.4722 38.7211C49.4722 38.6982 49.4675 38.6755 49.4583 38.6545C49.4491 38.6335 49.4356 38.6147 49.4188 38.5991L47.9456 37.1381Z" fill="white"/>
<path d="M52.9044 33.6379C52.9456 33.6373 52.9849 33.6206 53.0141 33.5915C53.0432 33.5623 53.0599 33.523 53.0605 33.4818C53.1386 30.7231 55.1825 28.7572 57.846 28.7572C60.5754 28.7572 62.634 30.8012 62.634 33.6354C62.634 36.4234 60.6535 38.4283 57.9997 38.5137C57.9581 38.5143 57.9184 38.5313 57.8892 38.561C57.86 38.5906 57.8436 38.6306 57.8436 38.6722V40.5528C57.8436 40.5961 57.8608 40.6377 57.8915 40.6683C57.9221 40.699 57.9637 40.7162 58.007 40.7162C62.0413 40.6357 65.017 37.6185 65.017 33.6428C65.017 29.6109 61.9584 26.5693 57.8436 26.5693C53.7874 26.5693 50.7433 29.5255 50.658 33.4696C50.6577 33.4913 50.6616 33.5128 50.6697 33.5329C50.6778 33.553 50.6898 33.5713 50.705 33.5867C50.7202 33.6022 50.7383 33.6144 50.7583 33.6228C50.7783 33.6311 50.7997 33.6354 50.8214 33.6354L52.9044 33.6379Z" fill="white"/>
<path d="M120.031 26.8546H118.021C117.979 26.8553 117.939 26.8725 117.909 26.9027C117.88 26.9328 117.863 26.9734 117.863 27.0156V28.2352C116.555 27.0791 114.864 26.4506 113.119 26.4717C109.089 26.4717 106.045 29.5304 106.045 33.6451C106.045 37.7014 109.004 40.743 112.948 40.8308C112.991 40.8308 113.033 40.8136 113.064 40.7829C113.094 40.7523 113.112 40.7107 113.112 40.6673V38.5868C113.112 38.5663 113.108 38.5459 113.101 38.5269C113.093 38.5078 113.082 38.4904 113.068 38.4757C113.053 38.461 113.036 38.4492 113.017 38.4411C112.999 38.4329 112.978 38.4286 112.958 38.4282C110.199 38.3526 108.233 36.3087 108.233 33.6451C108.233 30.9158 110.275 28.8572 113.112 28.8572C115.536 28.8572 117.856 30.5645 117.856 32.4866V40.6698C117.856 40.7121 117.872 40.7526 117.902 40.7828C117.932 40.8129 117.972 40.8301 118.014 40.8308H120.024C120.066 40.8301 120.107 40.813 120.137 40.7829C120.167 40.7529 120.184 40.7123 120.185 40.6698V27.0156C120.184 26.9743 120.168 26.9348 120.14 26.9049C120.111 26.8751 120.072 26.8571 120.031 26.8546Z" fill="white"/>
<path d="M186.751 35.7938C185.099 35.7938 184.338 34.9474 184.338 33.2986V23.1348H179.275V30.6814C178.693 29.4328 177.767 28.3762 176.605 27.6359C175.444 26.8956 174.095 26.5023 172.717 26.5023C171.34 26.5023 169.991 26.8956 168.829 27.6359C167.668 28.3762 166.742 29.4328 166.16 30.6814V26.652H161.169V33.7547C161.169 35.0352 160.496 35.9035 159.367 35.9035C158.238 35.9035 157.567 35.0352 157.567 33.7547V26.652H152.506V33.8181C152.506 38.2085 155.189 40.9622 159.367 40.9622C162.716 40.9622 165.104 39.1061 165.887 36.0962C166.375 37.5078 167.289 38.7334 168.503 39.6048C169.716 40.4762 171.169 40.9506 172.663 40.9629C174.157 40.9752 175.618 40.5247 176.845 39.6734C178.073 38.8222 179.007 37.6117 179.519 36.2084C180.251 39.428 182.69 40.8549 185.968 40.8549H187.248V35.7938H186.751ZM172.723 35.9035C172.293 35.904 171.873 35.7769 171.515 35.5383C171.157 35.2997 170.878 34.9603 170.714 34.5631C170.549 34.1659 170.506 33.7287 170.589 33.3069C170.673 32.8851 170.88 32.4976 171.184 32.1936C171.488 31.8895 171.876 31.6824 172.298 31.5987C172.719 31.5149 173.157 31.5581 173.554 31.7229C173.951 31.8877 174.29 32.1666 174.529 32.5244C174.768 32.8822 174.895 33.3027 174.894 33.7327C174.892 34.3079 174.663 34.8589 174.256 35.2656C173.85 35.6723 173.299 35.9016 172.723 35.9035Z" fill="white"/>
<path d="M148.612 41.5951C148.262 41.5951 147.961 41.4696 147.71 41.2187C147.459 40.9677 147.334 40.6671 147.334 40.3167C147.334 39.9663 147.459 39.6656 147.71 39.4147C147.961 39.1637 148.262 39.0383 148.612 39.0383C148.963 39.0383 149.263 39.1637 149.514 39.4147C149.765 39.6656 149.891 39.9663 149.891 40.3167C149.891 40.5487 149.831 40.7617 149.713 40.9559C149.599 41.15 149.445 41.3063 149.251 41.4246C149.062 41.5383 148.849 41.5951 148.612 41.5951Z" fill="white"/>
</svg>
